<svg width="135" height="81" viewBox="0 0 135 81" fill="none" xmlns="http://www.w3.org/2000/svg">
<g filter="url(#filter0_d_109332_285)">
<path d="M49.3982 50.0545C49.218 49.7136 49.0378 49.4296 48.9177 49.0887C48.0768 47.1572 48.0768 45.6802 48.3771 43.8055C48.6174 42.4421 48.5573 41.7604 48.1368 41.2491C47.6563 40.6811 46.9355 40.6242 45.9144 40.5106H45.7342C45.4338 40.4538 45.1335 40.4538 44.8932 40.4538C42.5506 40.3402 41.2292 40.397 40.6285 41.2491C40.0278 42.0445 40.4483 43.2374 41.2892 44.9417C41.7097 45.7938 41.8899 46.646 42.01 47.2709C40.9889 47.3277 39.7876 47.7821 38.346 48.3502C35.4027 49.4864 31.3782 51.077 26.4528 49.6568C20.6263 48.0094 15.7609 43.6351 13.118 41.2491C11.8566 40.113 11.316 39.6017 10.8955 39.4881C10.2948 39.3176 9.51397 39.7153 9.0935 39.9425L8.85324 40.0562C8.55291 40.2834 8.13244 40.6242 7.95224 41.0219C7.53177 42.3285 7.47171 44.7713 8.49284 47.4981C8.13244 47.3277 7.89217 47.2709 7.65191 47.214C7.05124 47.1572 6.39051 47.6117 5.84991 48.123L5.66971 48.2934C5.36937 48.5775 5.00897 49.0319 5.00897 49.4864C4.88884 51.5883 5.97004 54.8832 8.55291 57.9509H8.49284C7.89217 58.0645 7.35157 58.7462 6.99117 59.3711V59.5983C6.81097 59.996 6.63077 60.5073 6.69084 60.9617C7.29151 63.2909 9.75424 66.6426 13.8988 68.9718C16.4216 70.392 20.2659 71.7554 25.5518 71.7554C27.8944 71.7554 30.5373 71.4713 33.4205 70.7896C40.2681 69.199 46.6352 64.5975 49.218 59.2007C50.8398 56.0194 50.8999 52.8381 49.3982 50.0545ZM9.03344 41.3059C9.03344 41.3059 9.0935 41.2491 9.0935 41.1923C9.21364 41.4196 9.39384 41.7036 9.57404 41.9877C11.1358 44.6577 14.5596 50.6794 22.6085 53.6902C17.623 52.4972 13.178 50.0545 10.5351 48.5775C10.3549 48.4638 10.1747 48.3502 9.9945 48.2934C8.73311 45.5098 8.5529 42.783 9.03344 41.3059ZM6.15024 49.6C6.15024 49.6 6.15024 49.4864 6.27037 49.3728C6.45057 49.5432 6.75091 49.8841 7.05124 50.1681C9.57404 52.8381 15.5206 59.1439 26.3927 59.7688C26.7531 59.7688 27.0534 59.7688 27.4138 59.7688C28.495 59.7688 29.6363 59.6551 30.6574 59.4279C30.5373 59.4847 30.3571 59.4847 30.237 59.5415C23.4494 61.0754 15.9411 59.3711 11.9166 58.4622C11.2559 58.2917 10.7153 58.1781 10.2948 58.1213C7.23144 55.1104 6.03011 51.5883 6.15024 49.6ZM48.257 58.8598C45.7942 63.9158 39.7876 68.3469 33.2403 69.8239C16.5418 73.6301 8.73311 64.4839 7.77204 60.7345C7.77204 60.6777 7.77204 60.6209 7.8321 60.4505C8.13244 60.5641 8.49284 60.7913 8.85324 61.0185C12.277 63.0068 20.2659 67.6083 31.3782 65.052C38.7064 63.4045 42.4305 58.0645 44.5929 54.1447C44.713 53.9175 44.653 53.5766 44.3526 53.463C44.1124 53.3494 43.752 53.4062 43.6318 53.6902C41.5896 57.3828 37.9856 62.4956 31.0779 64.0862C20.386 66.529 12.6975 62.0411 9.39384 60.1664C8.91331 59.8824 8.55291 59.6551 8.25257 59.5415C8.49284 59.2007 8.73311 58.9734 8.85324 58.9734C9.15357 58.9166 10.415 59.2007 11.6163 59.4847C14.4995 60.1664 19.1847 61.189 24.1702 61.189C26.2125 61.189 28.3749 61.0185 30.4172 60.5073C35.703 59.3143 38.8265 56.3034 41.3493 53.2358C41.5295 53.0085 41.4694 52.6677 41.2292 52.4972C40.9889 52.3268 40.6285 52.3836 40.4483 52.6109C40.208 52.8949 39.9077 53.2358 39.6674 53.5198C35.4027 57.2692 31.0178 58.9734 26.3326 58.6894C15.9411 58.1213 10.1747 52.0428 7.71197 49.4296C7.35157 49.0319 7.11131 48.8047 6.87104 48.5775C7.17137 48.3502 7.41164 48.2366 7.53177 48.2366C7.8321 48.2934 8.85324 48.8615 9.87437 49.4296C13.3582 51.3611 19.8454 54.94 26.693 55.3377C27.0534 55.3377 27.3538 55.3377 27.7142 55.3377C30.1168 55.3377 32.1591 54.8832 33.9611 54.1447H34.0212C34.0812 54.1447 34.0812 54.0879 34.1413 54.0879C36.4238 53.179 38.2258 51.9292 39.7876 50.9066C40.3282 50.5658 40.8087 50.2249 41.2292 49.9409C41.4694 49.7704 41.5295 49.4864 41.4094 49.2592C41.2292 49.0319 40.9288 48.9751 40.6886 49.0887C40.208 49.3728 39.7275 49.7136 39.1869 50.0545C37.6252 51.077 35.8232 52.3268 33.5406 53.179C30.5974 54.0311 27.7142 54.0879 24.9511 53.2926C15.821 50.7362 12.0968 44.2032 10.475 41.4196C10.2348 41.0219 10.1146 40.7379 9.93444 40.5106C10.2348 40.397 10.415 40.3402 10.5351 40.3402C10.7754 40.4538 11.5562 41.1355 12.3371 41.874C14.98 44.26 19.9656 48.7479 26.0323 50.4521C27.534 50.8498 28.9756 51.0202 30.297 51.0202C33.6608 51.0202 36.4238 49.9409 38.6463 49.0887C40.208 48.4638 41.5295 47.9526 42.4305 48.123H42.4906H42.5506C42.5506 48.123 42.5506 48.123 42.6107 48.123C42.6708 48.123 42.6708 48.123 42.7308 48.0662C42.7308 48.0662 42.7909 48.0662 42.7909 48.0094C42.851 48.0094 42.851 47.9526 42.911 47.9526L42.9711 47.8958C42.9711 47.8958 43.0312 47.8389 43.0312 47.7821C43.0312 47.7253 43.0312 47.7253 43.0912 47.6685C43.0912 47.6685 43.0912 47.6685 43.0912 47.6117V47.5549V47.4981C43.0312 46.8164 42.851 45.453 42.2503 44.2032C41.95 43.5783 41.1691 41.9877 41.5295 41.5332C41.8298 41.0787 43.4516 41.1355 44.8932 41.1923C45.1335 41.1923 45.3738 41.1923 45.614 41.2491H45.7942C46.5751 41.3059 47.1157 41.4196 47.2959 41.59C47.4761 41.8172 47.4761 42.3853 47.356 43.3511C46.9956 45.3394 46.9956 47.0436 47.9566 49.2023C48.0768 49.5432 48.257 49.8841 48.4372 50.2249C49.7586 53.0085 49.6986 55.849 48.257 58.8598Z" fill="#333B41" stroke="#333B41" stroke-width="0.7"/>
<path d="M46.6964 57.8938C46.4561 57.7802 46.0957 57.8938 45.9756 58.1211C43.6931 62.7794 38.1069 66.8696 32.0401 68.233C31.7398 68.2898 31.5596 68.5738 31.6197 68.8579C31.6797 69.0851 31.92 69.2555 32.1603 69.2555C32.2203 69.2555 32.2203 69.2555 32.2804 69.2555C38.7075 67.8353 44.5941 63.5179 46.9967 58.5755C47.1169 58.3483 46.9967 58.0642 46.6964 57.8938Z" fill="#333B41" stroke="#333B41" stroke-width="0.7"/>
<path d="M72.6255 1.00768C69.4284 0.905391 66.2819 1.8276 63.6419 3.64074C61.0019 5.45388 59.0055 8.06379 57.9418 11.0923C57.8919 11.2345 57.8049 11.3607 57.6898 11.4576C57.5748 11.5545 57.4359 11.6186 57.2877 11.6433C55.6668 11.9186 54.1971 12.7659 53.1431 14.0324C52.0891 15.299 51.5201 16.9018 51.5385 18.552C51.5569 20.2023 52.1616 21.7917 53.2436 23.0342C54.3256 24.2767 55.8139 25.0909 57.4405 25.3297C57.6026 25.3535 57.7543 25.4244 57.8767 25.5337C57.9991 25.643 58.087 25.7858 58.1294 25.9447C58.9252 28.9208 60.6403 31.5671 63.0282 33.5033C65.416 35.4395 68.3538 36.5659 71.4193 36.7209C70.7502 39.1745 70.3446 41.693 70.2096 44.2333L65.1491 43.4302C64.0822 43.2608 62.992 43.5238 62.1183 44.1613C61.2446 44.7988 60.6589 45.7585 60.4901 46.8296C60.3213 47.9006 60.5832 48.995 61.2181 49.8722C61.8531 50.7494 62.8091 51.3373 63.8759 51.5068L70.7495 52.5969C70.9445 53.6657 71.1882 54.7249 71.4796 55.7714C69.9155 57.4792 69.0475 59.7146 69.0477 62.0346V63.4815C69.0475 63.7046 68.9592 63.9186 68.802 64.0763C68.6449 64.2341 68.4318 64.3227 68.2096 64.3229H67.7079C67.1132 64.3225 66.5241 64.44 65.9745 64.6682C65.4249 64.8965 64.9255 65.2312 64.5047 65.6533C64.084 66.0754 63.7503 66.5766 63.5225 67.1282C63.2948 67.6798 63.1775 68.2711 63.1775 68.8682V70.0537C63.1775 70.3888 63.2434 70.7206 63.3712 71.0302C63.4991 71.3397 63.6864 71.6208 63.9226 71.8576C64.1588 72.0944 64.4391 72.2822 64.7476 72.4102C65.0561 72.5382 65.3866 72.6038 65.7204 72.6035H97.923C102.252 72.604 106.532 71.6861 110.483 69.9097C114.434 68.1333 117.966 65.5386 120.848 62.2957C125.41 57.704 128.459 51.8179 129.582 45.4318C130.273 39.885 128.773 34.2873 125.404 29.8364C122.774 26.4476 119.2 23.9195 115.137 22.5725C112.33 21.7241 109.327 21.7963 106.564 22.7788C103.801 23.7613 101.423 25.6028 99.7738 28.0356C99.4604 28.4967 99.2407 29.0152 99.1271 29.5616C99.0135 30.108 99.0083 30.6713 99.1118 31.2197C99.2153 31.7681 99.4255 32.2906 99.7303 32.7574C100.035 33.2241 100.429 33.6261 100.888 33.94C101.348 34.254 101.865 34.4738 102.409 34.5871C102.953 34.7004 103.515 34.7049 104.061 34.6003C104.607 34.4957 105.127 34.2839 105.592 33.9773C106.056 33.6707 106.456 33.2752 106.768 32.8134C107.395 31.8884 108.296 31.1847 109.343 30.8015C110.39 30.4183 111.53 30.3751 112.603 30.678C115.011 31.5014 117.128 33.0083 118.699 35.0159C120.667 37.637 121.567 40.9127 121.214 44.1761C120.343 48.8459 118.066 53.1347 114.689 56.463C111.458 60.1776 107.093 62.715 102.276 63.6793C102.236 63.687 102.195 63.6847 102.157 63.6725C102.118 63.6603 102.083 63.6386 102.055 63.6095C102.027 63.5803 102.007 63.5446 101.996 63.5056C101.985 63.4665 101.984 63.4253 101.993 63.3858C103.479 57.132 103.056 50.5742 100.78 44.5647C99.6147 40.7952 97.6694 37.3154 95.0717 34.3527C92.4741 31.39 89.2826 29.0115 85.706 27.3725C85.8838 26.9048 86.0375 26.4281 86.1664 25.9445C86.2088 25.7856 86.2967 25.6428 86.4192 25.5335C86.5416 25.4242 86.6933 25.3533 86.8554 25.3295C88.482 25.0903 89.9701 24.276 91.0517 23.0332C92.1334 21.7904 92.7377 20.2007 92.7557 18.5504C92.7737 16.9001 92.2044 15.2977 91.1501 14.0314C90.0958 12.7651 88.6259 11.9181 87.005 11.6431C86.8568 11.6184 86.7179 11.5543 86.6029 11.4574C86.4878 11.3605 86.4008 11.2343 86.3509 11.0921C85.3417 8.21857 83.4913 5.71834 81.0422 3.9188C78.5931 2.11927 75.6589 1.10461 72.6255 1.00768ZM71.6825 2.11355C74.6461 2.01807 77.5631 2.87269 80.0103 4.55356C82.4575 6.23443 84.3078 8.65423 85.293 11.4619C85.4086 11.7905 85.6097 12.082 85.8754 12.3062C86.1412 12.5304 86.4619 12.6791 86.8042 12.7368C88.165 12.9681 89.3988 13.6794 90.2838 14.7425C91.1688 15.8057 91.6468 17.151 91.6319 18.5364C91.617 19.9218 91.1102 21.2565 90.2026 22.3002C89.2949 23.344 88.0461 24.0284 86.6807 24.2302C86.305 24.2852 85.9536 24.4494 85.6698 24.7026C85.386 24.9558 85.1823 25.2868 85.0838 25.6549C84.664 27.2271 83.9637 28.7098 83.0169 30.0311C83.1451 27.4422 82.252 24.9069 80.531 22.9745C80.5115 22.948 80.4975 22.9177 80.4899 22.8856C80.4823 22.8535 80.4813 22.8203 80.4869 22.7878C80.4925 22.7554 80.5047 22.7243 80.5226 22.6967C80.5405 22.669 80.5638 22.6454 80.5912 22.6271C81.9577 21.4524 82.8346 19.8048 83.0476 18.0114C83.2607 16.2179 82.7944 14.4095 81.7413 12.9451C80.6882 11.4806 79.1253 10.4673 77.3626 10.1058C75.5999 9.74425 73.7662 10.0611 72.2254 10.9935C72.0021 11.1284 71.7463 11.1997 71.4856 11.1997C71.225 11.1997 70.9692 11.1284 70.7459 10.9935H70.7296C69.1888 10.0648 67.3568 9.75074 65.5964 10.1136C63.836 10.4765 62.2755 11.4899 61.2238 12.9529C60.1722 14.4159 59.7061 16.222 59.9178 18.0136C60.1295 19.8052 61.0037 21.4517 62.3671 22.6271C62.3901 22.6497 62.4084 22.6767 62.4208 22.7065C62.4333 22.7364 62.4397 22.7685 62.4397 22.8008C62.4397 22.8331 62.4333 22.865 62.4208 22.8949C62.4084 22.9247 62.3901 22.9519 62.3671 22.9745C61.1303 24.3661 60.3123 26.0814 60.0082 27.9212C59.6638 27.1923 59.3855 26.4338 59.1764 25.6549C59.0781 25.2873 58.8749 24.9566 58.5917 24.7034C58.3085 24.4503 57.9578 24.2858 57.5827 24.2302C56.2173 24.0284 54.9685 23.344 54.0609 22.3002C53.1532 21.2565 52.6464 19.9218 52.6315 18.5364C52.6166 17.151 53.0946 15.8057 53.9796 14.7425C54.8646 13.6794 56.0985 12.9681 57.4592 12.7368C57.8009 12.6785 58.121 12.5298 58.3861 12.3056C58.6513 12.0814 58.8519 11.7901 58.9672 11.4619C59.9016 8.79894 61.6156 6.48146 63.8845 4.8133C66.1535 3.14515 68.8716 2.2041 71.6825 2.11355ZM66.8154 11.0698C66.9709 11.0638 67.1266 11.0638 67.2821 11.0698C68.2973 11.1137 69.2853 11.413 70.1553 11.9401C70.5507 12.1789 71.0035 12.305 71.4649 12.305C71.9264 12.305 72.3791 12.1789 72.7745 11.9401C74.078 11.1551 75.6276 10.89 77.1165 11.1975C78.6054 11.5049 79.925 12.3623 80.8141 13.6C81.7033 14.8377 82.097 16.3655 81.9176 17.8809C81.7381 19.3962 80.9984 20.7887 79.8449 21.7826C79.7094 21.9003 79.5986 22.0438 79.519 22.205C79.4394 22.3661 79.3927 22.5418 79.3815 22.7214C79.3703 22.9009 79.3949 23.0808 79.4538 23.2507C79.5127 23.4206 79.6048 23.577 79.7246 23.7107C80.6682 24.7702 81.3403 26.0445 81.6827 27.4235C82.0252 28.8025 82.0276 30.2446 81.6899 31.6247C80.2914 33.0463 78.5952 34.1377 76.7245 34.8195C74.8538 35.5013 72.8553 35.7566 70.8741 35.5668C68.8929 35.377 66.9786 34.7468 65.2701 33.7221C63.5616 32.6974 62.1016 31.3037 60.9962 29.6423C60.9703 27.4565 61.761 25.3403 63.2122 23.7107C63.3315 23.5764 63.4229 23.4195 63.481 23.2493C63.5391 23.079 63.5628 22.8987 63.5507 22.7191C63.5386 22.5395 63.4909 22.3643 63.4105 22.2035C63.33 22.0427 63.2184 21.8996 63.0822 21.7826C62.1527 20.9856 61.4848 19.9251 61.1661 18.7404C60.8473 17.5557 60.8925 16.3019 61.2958 15.1434C61.6991 13.985 62.4416 12.9758 63.4261 12.2484C64.4105 11.5209 65.591 11.109 66.8126 11.0668L66.8154 11.0698ZM111.06 23.0955C112.33 23.0845 113.593 23.265 114.81 23.6311C118.656 24.9112 122.037 27.3068 124.528 30.5156C127.714 34.7258 129.137 40.0187 128.493 45.2665C127.402 51.4294 124.453 57.1077 120.045 61.5344C117.266 64.6672 113.859 67.1742 110.047 68.8909C106.235 70.6075 102.104 71.4949 97.9257 71.4947H65.7233C65.5346 71.4951 65.3477 71.4582 65.1732 71.386C64.9987 71.3138 64.8401 71.2076 64.7065 71.0738C64.5729 70.94 64.4669 70.7812 64.3946 70.6062C64.3223 70.4312 64.2851 70.2434 64.2851 70.054V68.8684C64.2851 68.4169 64.3737 67.9699 64.5459 67.5528C64.7181 67.1357 64.9705 66.757 65.2886 66.4379C65.6068 66.1188 65.9844 65.8657 66.4 65.6932C66.8156 65.5207 67.261 65.4321 67.7107 65.4325H68.2123C68.4677 65.4327 68.7207 65.3826 68.9567 65.2847C69.1928 65.1868 69.4073 65.0433 69.588 64.8621C69.7688 64.681 69.9122 64.4658 70.0101 64.229C70.108 63.9922 70.1584 63.7383 70.1586 63.4819V62.035C70.208 59.9089 71.0839 57.8866 72.5992 56.4004C74.1144 54.9143 76.1487 54.0823 78.2671 54.0823C80.3854 54.0823 82.4197 54.9143 83.935 56.4004C85.4503 57.8866 86.3262 59.9089 86.3756 62.035V64.5114C86.3799 64.6556 86.4399 64.7925 86.5431 64.893C86.6462 64.9935 86.7843 65.0496 86.928 65.0496C87.0718 65.0496 87.2098 64.9935 87.313 64.893C87.4161 64.7925 87.4762 64.6556 87.4805 64.5114V62.035C87.4809 60.4145 87.0574 58.8221 86.2523 57.4176C85.4472 56.013 84.2888 54.8455 82.8929 54.0316C83.743 53.8303 84.5441 53.4595 85.2485 52.9412C85.953 52.4229 86.5465 51.7677 86.9937 51.0145C87.4409 50.2614 87.7327 49.4256 87.8518 48.557C87.9709 47.6884 87.9148 46.8046 87.6869 45.9581C87.0965 43.7654 86.2793 41.6405 85.2486 39.6184C85.1816 39.4874 85.0655 39.3885 84.9259 39.3434C84.7862 39.2984 84.6344 39.3108 84.5039 39.378C84.3734 39.4453 84.2749 39.5618 84.2299 39.702C84.185 39.8422 84.1974 39.9947 84.2644 40.1258C85.259 42.0788 86.0475 44.1307 86.617 46.2483C86.8524 47.1227 86.8662 48.0424 86.6573 48.9236C86.4483 49.8047 86.0231 50.6195 85.4204 51.2936C84.8178 51.9677 84.0567 52.4797 83.2066 52.7831C82.3565 53.0866 81.4443 53.1718 80.553 53.0309L64.0533 50.411C63.2784 50.2851 62.5849 49.8558 62.1245 49.2175C61.6642 48.5792 61.4746 47.7839 61.5972 47.0055C61.7198 46.2272 62.1447 45.5293 62.7788 45.0648C63.4129 44.6003 64.2046 44.407 64.9803 44.5272L77.683 46.5449C77.8271 46.5663 77.9739 46.5297 78.0913 46.443C78.2088 46.3563 78.2873 46.2266 78.3099 46.082C78.3325 45.9375 78.2974 45.7898 78.2121 45.6712C78.1268 45.5525 77.9982 45.4725 77.8544 45.4485L71.3111 44.4095C71.4398 41.8119 71.8605 39.2371 72.5652 36.7343C75.244 36.6572 77.8493 35.8371 80.0925 34.3648C82.3356 32.8926 84.129 30.8257 85.274 28.3932C88.7086 29.971 91.7726 32.2594 94.2652 35.1085C96.7579 37.9575 98.623 41.3029 99.7385 44.9257C101.946 50.7362 102.357 57.0795 100.92 63.1283C100.867 63.3491 100.871 63.5797 100.93 63.7986C100.99 64.0176 101.103 64.2181 101.26 64.3815C101.417 64.545 101.612 64.6663 101.828 64.7341C102.043 64.8019 102.273 64.8142 102.494 64.7697C107.538 63.7603 112.109 61.1086 115.499 57.2256C119.029 53.7315 121.406 49.2332 122.309 44.3391C122.705 40.7784 121.728 37.2006 119.578 34.3408C117.868 32.1508 115.559 30.5091 112.933 29.617C111.634 29.2446 110.252 29.2929 108.982 29.7547C107.712 30.2164 106.62 31.0684 105.86 32.1893C105.629 32.5301 105.333 32.8217 104.99 33.0478C104.647 33.2739 104.262 33.43 103.859 33.507C103.456 33.584 103.041 33.5803 102.639 33.4965C102.237 33.4126 101.856 33.2501 101.516 33.0182C101.177 32.7863 100.886 32.4895 100.661 32.1449C100.436 31.8002 100.281 31.4145 100.204 31.0096C100.127 30.6046 100.131 30.1885 100.215 29.7849C100.298 29.3814 100.46 28.9983 100.691 28.6576C101.843 26.9586 103.388 25.5652 105.194 24.5966C107 23.628 109.013 23.1127 111.06 23.0955ZM71.9143 52.7819L75.213 53.3047C74.1876 53.6671 73.2341 54.2088 72.3968 54.9047C72.2148 54.2024 72.0549 53.4944 71.9174 52.7819H71.9143Z" fill="#333B41" stroke="#333B41" stroke-width="0.7"/>
<path d="M76.0679 14.6307C75.4493 14.6418 74.8601 14.898 74.4289 15.3434C73.9977 15.7889 73.7594 16.3874 73.766 17.0085C73.766 17.6328 74.013 18.2313 74.4527 18.6728C74.8924 19.1142 75.4888 19.3623 76.1107 19.3623C76.7325 19.3623 77.3289 19.1142 77.7686 18.6728C78.2083 18.2313 78.4553 17.6328 78.4553 17.0085C78.4586 16.6937 78.399 16.3814 78.28 16.0901C78.161 15.7989 77.9849 15.5345 77.7623 15.3127C77.5397 15.091 77.275 14.9164 76.984 14.7992C76.6929 14.682 76.3814 14.6248 76.0679 14.6307ZM76.0874 15.7526C76.2532 15.7492 76.4179 15.7793 76.5719 15.8411C76.7259 15.9029 76.866 15.995 76.9838 16.1122C77.1016 16.2293 77.1949 16.369 77.2579 16.523C77.321 16.6769 77.3526 16.842 77.3509 17.0085C77.351 17.172 77.319 17.3339 77.2567 17.485C77.1944 17.6361 77.1031 17.7734 76.988 17.889C76.8728 18.0046 76.7362 18.0963 76.5857 18.1588C76.4352 18.2214 76.274 18.2537 76.1111 18.2537C75.9483 18.2537 75.787 18.2214 75.6365 18.1588C75.4861 18.0963 75.3494 18.0046 75.2343 17.889C75.1191 17.7734 75.0278 17.6361 74.9655 17.485C74.9033 17.3339 74.8713 17.172 74.8713 17.0085C74.868 16.6805 74.994 16.3643 75.2217 16.129C75.4495 15.8938 75.7607 15.7586 76.0874 15.7526Z" fill="#333B41" stroke="#333B41" stroke-width="0.7"/>
<path d="M66.7849 14.6306C66.1663 14.6418 65.5772 14.8979 65.146 15.3434C64.7148 15.7888 64.4765 16.3874 64.4831 17.0084C64.4742 17.323 64.5283 17.6359 64.642 17.9291C64.7558 18.2223 64.9269 18.4897 65.1454 18.7153C65.3638 18.9409 65.6251 19.1202 65.9138 19.2426C66.2025 19.3651 66.5127 19.4283 66.8261 19.4283C67.1395 19.4283 67.4498 19.3651 67.7385 19.2426C68.0272 19.1202 68.2885 18.9409 68.5069 18.7153C68.7253 18.4897 68.8965 18.2223 69.0103 17.9291C69.124 17.6359 69.1781 17.323 69.1692 17.0084C69.1725 16.6939 69.113 16.3819 68.9941 16.0909C68.8753 15.7999 68.6996 15.5356 68.4773 15.3139C68.255 15.0922 67.9907 14.9176 67.7 14.8002C67.4093 14.6828 67.0981 14.6252 66.7849 14.6306ZM66.8043 15.7525C66.9699 15.7496 67.1343 15.7799 67.2879 15.8419C67.4416 15.9038 67.5812 15.996 67.6988 16.1131C67.8163 16.2302 67.9092 16.3698 67.9721 16.5235C68.0349 16.6773 68.0664 16.8422 68.0648 17.0084C68.069 17.1744 68.0401 17.3394 67.9798 17.494C67.9195 17.6485 67.8289 17.7894 67.7135 17.9083C67.5981 18.0272 67.4602 18.1214 67.3079 18.1859C67.1555 18.2504 66.9919 18.2837 66.8265 18.2837C66.6612 18.2837 66.4975 18.2504 66.3452 18.1859C66.1929 18.1214 66.0549 18.0272 65.9395 17.9083C65.8241 17.7894 65.7336 17.6485 65.6733 17.494C65.6129 17.3394 65.5841 17.1744 65.5883 17.0084C65.585 16.6804 65.7109 16.3642 65.9387 16.129C66.1665 15.8937 66.4776 15.7585 66.8043 15.7525Z" fill="#333B41" stroke="#333B41" stroke-width="0.7"/>
<path d="M67.4982 28.8265C67.947 29.4644 68.5418 29.9848 69.2326 30.344C69.9233 30.7032 70.6899 30.8909 71.4679 30.8909C72.2459 30.8909 73.0125 30.7032 73.7032 30.344C74.394 29.9848 74.9888 29.4644 75.4377 28.8265C75.5198 28.7062 75.5514 28.5582 75.5257 28.4146C75.5 28.2711 75.4191 28.1435 75.3004 28.0594C75.1818 27.9753 75.0349 27.9416 74.8915 27.9653C74.7482 27.9891 74.62 28.0684 74.5345 28.1864C74.1878 28.6791 73.7283 29.0813 73.1947 29.3587C72.661 29.6362 72.0689 29.7809 71.4679 29.7809C70.867 29.7809 70.2748 29.6362 69.7412 29.3587C69.2075 29.0813 68.748 28.6791 68.4013 28.1864C68.3158 28.0684 68.1876 27.9891 68.0443 27.9653C67.9009 27.9415 67.754 27.9753 67.6354 28.0594C67.5167 28.1435 67.4358 28.2711 67.4101 28.4146C67.3844 28.5582 67.416 28.7062 67.4982 28.8265Z" fill="#333B41" stroke="#333B41" stroke-width="0.7"/>
</g>
<defs>
<filter id="filter0_d_109332_285" x="0.649902" y="0.650024" width="133.447" height="80.3034" filterUnits="userSpaceOnUse" color-interpolation-filters="sRGB">
<feFlood flood-opacity="0" result="BackgroundImageFix"/>
<feColorMatrix in="SourceAlpha" type="matrix" values="0 0 0 0 0 0 0 0 0 0 0 0 0 0 0 0 0 0 127 0" result="hardAlpha"/>
<feOffset dy="4"/>
<feGaussianBlur stdDeviation="2"/>
<feComposite in2="hardAlpha" operator="out"/>
<feColorMatrix type="matrix" values="0 0 0 0 0 0 0 0 0 0 0 0 0 0 0 0 0 0 0.25 0"/>
<feBlend mode="normal" in2="BackgroundImageFix" result="effect1_dropShadow_109332_285"/>
<feBlend mode="normal" in="SourceGraphic" in2="effect1_dropShadow_109332_285" result="shape"/>
</filter>
</defs>
</svg>
